<svg xmlns="http://www.w3.org/2000/svg" width="695" height="710" viewBox="0 0 695 710" font-family="sans-serif">
<rect width="100%" height="100%" fill="#f4f4f0"/>
<g transform="translate(40.0,30.0)">
<g class="block if">
<rect x="0" y="0" width="300" height="55.00000000000001" fill="#4c8dd6" stroke="#3b74b5" stroke-width="1"/>
<rect x="0" y="55.00000000000001" width="25" height="179.99999999999997" fill="#4c8dd6" stroke="#3b74b5" stroke-width="1"/>
<rect x="0" y="234.99999999999997" width="25" height="140" fill="#4c8dd6" stroke="#3b74b5" stroke-width="1"/>
<rect x="25" y="234.99999999999997" width="275" height="55.00000000000001" fill="#4c8dd6" stroke="#3b74b5" stroke-width="1" opacity="0.35" stroke-dasharray="4 3"/>
<rect x="0" y="374.99999999999994" width="25" height="235" fill="#4c8dd6" stroke="#3b74b5" stroke-width="1"/>
<rect x="25" y="374.99999999999994" width="204.99999999999997" height="55.00000000000001" fill="#4c8dd6" stroke="#3b74b5" stroke-width="1"/>
<rect x="0" y="610" width="300" height="25" fill="#4c8dd6" stroke="#3b74b5" stroke-width="1"/>
<rect x="2.5" y="0" width="100" height="15" fill="#f4f4f0" stroke="#3b74b5" stroke-width="1"/>
<rect x="2.5" y="635" width="100" height="15" fill="#4c8dd6" stroke="#3b74b5" stroke-width="1"/>
<rect x="287.5" y="2.5" width="10" height="50" fill="#f4f4f0" stroke="#3b74b5" stroke-width="1"/>
<rect x="27.500000000000004" y="55.00000000000001" width="100" height="15" fill="#4c8dd6" stroke="#3b74b5" stroke-width="1"/>
<rect x="27.500000000000004" y="430" width="100" height="15" fill="#4c8dd6" stroke="#3b74b5" stroke-width="1"/>
<text x="135" y="38.900000000000006" font-size="30" fill="#111">if</text>
<text x="137.5" y="273.9" font-size="30" fill="#111" opacity="0.4">else if</text>
<text x="137.5" y="413.8999999999999" font-size="30" fill="#111">else</text>
</g>
<rect x="303.5" y="6" width="107.5" height="260" fill="rgba(0,0,0,0.25)"/>
<g class="block and">
<rect x="297.5" y="0" width="107.5" height="55.00000000000001" fill="#e0a03a" stroke="#c2862a" stroke-width="1"/>
<rect x="297.5" y="55.00000000000001" width="25" height="55.00000000000001" fill="#e0a03a" stroke="#c2862a" stroke-width="1"/>
<rect x="322.5" y="55.00000000000001" width="62.5" height="55.00000000000001" fill="#e0a03a" stroke="#c2862a" stroke-width="1"/>
<rect x="297.5" y="110.00000000000001" width="25" height="55.00000000000001" fill="#e0a03a" stroke="#c2862a" stroke-width="1"/>
<rect x="322.5" y="110.00000000000001" width="62.5" height="55.00000000000001" fill="#e0a03a" stroke="#c2862a" stroke-width="1"/>
<rect x="297.5" y="165" width="25" height="55.00000000000001" fill="#e0a03a" stroke="#c2862a" stroke-width="1"/>
<rect x="322.5" y="165" width="62.5" height="55.00000000000001" fill="#e0a03a" stroke="#c2862a" stroke-width="1" opacity="0.35" stroke-dasharray="4 3"/>
<rect x="297.5" y="220.00000000000003" width="25" height="15" fill="#e0a03a" stroke="#c2862a" stroke-width="1"/>
<rect x="297.5" y="235" width="107.5" height="25" fill="#e0a03a" stroke="#c2862a" stroke-width="1"/>
<rect x="287.5" y="2.5" width="10" height="50" fill="#e0a03a" stroke="#c2862a" stroke-width="1"/>
<rect x="372.5" y="57.50000000000001" width="10" height="50" fill="#f4f4f0" stroke="#c2862a" stroke-width="1"/>
<rect x="372.5" y="112.5" width="10" height="50" fill="#f4f4f0" stroke="#c2862a" stroke-width="1"/>
<text x="332.5" y="38.900000000000006" font-size="30" fill="#111">and</text>
</g>
<rect x="388.5" y="61.00000000000001" width="87.5" height="204.99999999999997" fill="rgba(0,0,0,0.25)"/>
<g class="block compare">
<rect x="382.5" y="55.00000000000001" width="87.5" height="55.00000000000001" fill="#e0a03a" stroke="#c2862a" stroke-width="1"/>
<rect x="382.5" y="110.00000000000001" width="25" height="55.00000000000001" fill="#e0a03a" stroke="#c2862a" stroke-width="1"/>
<rect x="407.5" y="110.00000000000001" width="62.5" height="55.00000000000001" fill="#e0a03a" stroke="#c2862a" stroke-width="1"/>
<rect x="382.5" y="165" width="25" height="55.00000000000001" fill="#e0a03a" stroke="#c2862a" stroke-width="1"/>
<rect x="407.5" y="165" width="62.5" height="55.00000000000001" fill="#e0a03a" stroke="#c2862a" stroke-width="1"/>
<rect x="382.5" y="220.00000000000003" width="25" height="15" fill="#e0a03a" stroke="#c2862a" stroke-width="1"/>
<rect x="382.5" y="235" width="87.5" height="25" fill="#e0a03a" stroke="#c2862a" stroke-width="1"/>
<rect x="372.5" y="57.50000000000001" width="10" height="50" fill="#e0a03a" stroke="#c2862a" stroke-width="1"/>
<rect x="457.5" y="112.5" width="10" height="50" fill="#f4f4f0" stroke="#c2862a" stroke-width="1"/>
<rect x="457.5" y="167.5" width="10" height="50" fill="#f4f4f0" stroke="#c2862a" stroke-width="1"/>
<text x="417.5" y="93.9" font-size="30" fill="#111" font-style="italic">&lt;</text>
</g>
<rect x="473.49999999999994" y="116.00000000000001" width="77.5" height="55.00000000000001" fill="rgba(0,0,0,0.25)"/>
<g class="block value">
<rect x="467.5" y="110.00000000000001" width="77.5" height="55.00000000000001" fill="#e0a03a" stroke="#c2862a" stroke-width="1"/>
<rect x="457.5" y="112.5" width="10" height="50" fill="#e0a03a" stroke="#c2862a" stroke-width="1"/>
<text x="502.49999999999994" y="148.9" font-size="30" fill="#111" font-style="italic">a</text>
</g>
<rect x="473.49999999999994" y="171.00000000000003" width="77.5" height="55.00000000000001" fill="rgba(0,0,0,0.25)"/>
<g class="block value">
<rect x="467.5" y="165" width="77.5" height="55.00000000000001" fill="#e0a03a" stroke="#c2862a" stroke-width="1"/>
<rect x="457.5" y="167.5" width="10" height="50" fill="#e0a03a" stroke="#c2862a" stroke-width="1"/>
<text x="502.49999999999994" y="203.9" font-size="30" fill="#111" font-style="italic">b</text>
</g>
<rect x="388.5" y="116.00000000000001" width="117.5" height="55.00000000000001" fill="rgba(0,0,0,0.25)"/>
<g class="block not">
<rect x="382.5" y="110.00000000000001" width="117.5" height="55.00000000000001" fill="#e0a03a" stroke="#c2862a" stroke-width="1"/>
<rect x="372.5" y="112.5" width="10" height="50" fill="#e0a03a" stroke="#c2862a" stroke-width="1"/>
<rect x="487.5" y="112.5" width="10" height="50" fill="#f4f4f0" stroke="#c2862a" stroke-width="1"/>
<text x="417.5" y="148.9" font-size="30" fill="#111">not</text>
</g>
<rect x="503.5" y="116.00000000000001" width="127.49999999999999" height="55.00000000000001" fill="rgba(0,0,0,0.25)"/>
<g class="block value">
<rect x="497.50000000000006" y="110.00000000000001" width="127.49999999999999" height="55.00000000000001" fill="#e0a03a" stroke="#c2862a" stroke-width="1"/>
<rect x="487.5000000000001" y="112.5" width="10" height="50" fill="#e0a03a" stroke="#c2862a" stroke-width="1"/>
<text x="532.5" y="148.9" font-size="30" fill="#111" font-style="italic">done</text>
</g>
<g class="block call">
<rect x="25" y="55.00000000000001" width="187.5" height="55.00000000000001" fill="#4c8dd6" stroke="#3b74b5" stroke-width="1"/>
<rect x="25" y="110.00000000000001" width="25" height="55.00000000000001" fill="#4c8dd6" stroke="#3b74b5" stroke-width="1"/>
<rect x="50" y="110.00000000000001" width="92.5" height="55.00000000000001" fill="#4c8dd6" stroke="#3b74b5" stroke-width="1" opacity="0.35" stroke-dasharray="4 3"/>
<rect x="25" y="165" width="25" height="15" fill="#4c8dd6" stroke="#3b74b5" stroke-width="1"/>
<rect x="25" y="180" width="187.5" height="25" fill="#4c8dd6" stroke="#3b74b5" stroke-width="1"/>
<rect x="27.500000000000004" y="55.00000000000001" width="100" height="15" fill="#f4f4f0" stroke="#3b74b5" stroke-width="1"/>
<rect x="27.500000000000004" y="204.99999999999997" width="100" height="15" fill="#4c8dd6" stroke="#3b74b5" stroke-width="1"/>
<text x="160" y="93.9" font-size="30" fill="#111" font-style="italic">go</text>
<text x="60" y="148.9" font-size="30" fill="#111" font-style="italic" opacity="0.4">arg</text>
</g>
<g class="block call">
<rect x="25" y="430" width="227.5" height="55.00000000000001" fill="#4c8dd6" stroke="#3b74b5" stroke-width="1"/>
<rect x="25" y="484.99999999999994" width="25" height="55.00000000000001" fill="#4c8dd6" stroke="#3b74b5" stroke-width="1"/>
<rect x="50" y="484.99999999999994" width="92.5" height="55.00000000000001" fill="#4c8dd6" stroke="#3b74b5" stroke-width="1" opacity="0.35" stroke-dasharray="4 3"/>
<rect x="25" y="540" width="25" height="15" fill="#4c8dd6" stroke="#3b74b5" stroke-width="1"/>
<rect x="25" y="555" width="227.5" height="25" fill="#4c8dd6" stroke="#3b74b5" stroke-width="1"/>
<rect x="27.500000000000004" y="430" width="100" height="15" fill="#f4f4f0" stroke="#3b74b5" stroke-width="1"/>
<rect x="27.500000000000004" y="580" width="100" height="15" fill="#4c8dd6" stroke="#3b74b5" stroke-width="1"/>
<text x="160" y="468.9" font-size="30" fill="#111" font-style="italic">stop</text>
<text x="60" y="523.9" font-size="30" fill="#111" font-style="italic" opacity="0.4">arg</text>
</g>
</g></svg>